<svg width="34" height="34" viewBox="0 0 34 34" fill="none" xmlns="http://www.w3.org/2000/svg">
    <path d="M13.9815 16.1652C13.9815 16.1652 16.9456 15.94 16.9456 12.3933C16.9456 8.8495 14.9352 7.10258 11.8625 7.10258L1.33594 7.08594V26.6702H12.1073C12.1073 26.6702 17.4929 26.8406 17.4929 20.7949C17.4929 20.7949 17.8885 16.1652 13.9815 16.1652ZM5.25278 10.0236H10.6385C10.6385 10.0236 12.4813 10.0539 12.4813 12.4432C12.4813 14.9196 10.6385 14.9196 10.6385 14.9196H5.25278V10.0236ZM11.1281 23.7325H5.25278V17.8573H11.1281C11.1281 17.8573 14.0657 17.8876 14.0657 20.7949C14.0657 23.7022 11.5511 23.7325 11.1281 23.7325Z" fill="#0F0F0F"/>
    <path d="M25.815 11.9844C18.4582 11.9844 18.4709 19.3285 18.4709 19.3285C18.4709 19.3285 17.9813 26.6726 25.815 26.6726C25.815 26.6726 32.6695 26.6726 32.6695 20.7973H28.7526C28.7526 20.7973 28.7526 23.7349 25.815 23.7349C25.815 23.7349 22.8773 23.7349 22.8773 19.8181C22.8773 19.8181 30.711 19.8181 32.6695 19.8181C32.6695 17.8596 32.6695 11.9844 25.815 11.9844ZM22.8773 17.8596C22.8773 17.8596 22.8127 14.922 25.815 14.922C28.8163 14.922 28.7526 17.8596 28.7526 17.8596H22.8773Z" fill="#0F0F0F"/>
    <path d="M29.7321 9.04688H21.8984V11.0053H29.7321V9.04688Z" fill="#0F0F0F"/>
</svg>
