<svg width="26" height="29" viewBox="0 0 26 29" fill="none" xmlns="http://www.w3.org/2000/svg">
    <path fill-rule="evenodd" clip-rule="evenodd" d="M4.72222 0H20.7778C21.2163 0 21.4356 0 21.6204 0.0169679C23.6751 0.205567 25.3041 1.91469 25.4838 4.07039C25.5 4.26433 25.5 4.49438 25.5 4.95446V25.868C25.5 27.1041 24.0002 27.6287 23.2933 26.6398C22.8029 25.9538 21.8221 25.9538 21.3317 26.6398L20.7188 27.4973C19.9219 28.612 18.3281 28.612 17.5312 27.4973C16.7344 26.3825 15.1406 26.3825 14.3438 27.4973C13.5469 28.612 11.9531 28.612 11.1562 27.4973C10.3594 26.3825 8.76562 26.3825 7.96875 27.4973C7.17188 28.612 5.57812 28.612 4.78125 27.4973L4.16827 26.6398C3.67788 25.9538 2.69712 25.9538 2.20673 26.6398C1.49983 27.6286 0 27.1041 0 25.868V4.95446C0 4.49438 0 4.26433 0.0161725 4.07039C0.195931 1.91469 1.82494 0.205567 3.87959 0.0169679C4.06444 0 4.2837 0 4.72222 0ZM10.668 7.7487C10.2531 7.33377 9.58032 7.33377 9.16539 7.7487C8.75046 8.16363 8.75046 8.83637 9.16539 9.2513L11.2474 11.3333L9.16541 13.4154C8.75048 13.8303 8.75048 14.503 9.16541 14.918C9.58035 15.3329 10.2531 15.3329 10.668 14.918L12.75 12.8359L14.832 14.9179C15.247 15.3329 15.9197 15.3329 16.3346 14.9179C16.7496 14.503 16.7496 13.8303 16.3346 13.4153L14.2526 11.3333L16.3347 9.25132C16.7496 8.83639 16.7496 8.16365 16.3347 7.74872C15.9197 7.33379 15.247 7.33379 14.8321 7.74872L12.75 9.83074L10.668 7.7487ZM6.375 18.0625C5.7882 18.0625 5.3125 18.5382 5.3125 19.125C5.3125 19.7118 5.7882 20.1875 6.375 20.1875H19.125C19.7118 20.1875 20.1875 19.7118 20.1875 19.125C20.1875 18.5382 19.7118 18.0625 19.125 18.0625H6.375Z" fill="#C2B4A3"/>
</svg>
