<svg width="20" height="29" viewBox="0 0 20 29" fill="none" xmlns="http://www.w3.org/2000/svg">
    <path fill-rule="evenodd" clip-rule="evenodd" d="M0.280855 1.84051C1.13399 0 4.06155 0 9.91667 0C15.7718 0 18.6993 0 19.5525 1.84051C19.6258 1.99871 19.6877 2.16304 19.7375 2.33197C20.317 4.29717 18.2469 6.57491 14.1067 11.1304L11.3333 14.1667L14.1067 17.203C18.2469 21.7584 20.317 24.0362 19.7375 26.0014C19.6877 26.1703 19.6258 26.3346 19.5525 26.4928C18.6993 28.3333 15.7718 28.3333 9.91667 28.3333C4.06155 28.3333 1.13399 28.3333 0.280855 26.4928C0.207521 26.3346 0.145658 26.1703 0.0958413 26.0014C-0.483698 24.0362 1.5864 21.7584 5.7266 17.2029L8.5 14.1667L5.7266 11.1304C1.5864 6.57491 -0.483698 4.29717 0.0958413 2.33197C0.145658 2.16304 0.207521 1.99871 0.280855 1.84051ZM7.08333 22.3125C6.49653 22.3125 6.02083 22.7882 6.02083 23.375C6.02083 23.9618 6.49653 24.4375 7.08333 24.4375H12.75C13.3368 24.4375 13.8125 23.9618 13.8125 23.375C13.8125 22.7882 13.3368 22.3125 12.75 22.3125H7.08333ZM6.02083 4.95833C6.02083 4.37153 6.49653 3.89583 7.08333 3.89583H12.75C13.3368 3.89583 13.8125 4.37153 13.8125 4.95833C13.8125 5.54514 13.3368 6.02083 12.75 6.02083H7.08333C6.49653 6.02083 6.02083 5.54514 6.02083 4.95833Z" fill="#C2B4A3"/>
</svg>
