<svg width="34" height="34" viewBox="0 0 34 34" fill="none" xmlns="http://www.w3.org/2000/svg">
    <path fill-rule="evenodd" clip-rule="evenodd" d="M19.0335 8.19054C17.7652 7.49899 16.2325 7.49899 14.9643 8.19054L8.17243 11.894C6.80678 12.6386 5.95703 14.0698 5.95703 15.6253V22.6203C5.95703 24.1758 6.80678 25.607 8.17242 26.3516L14.9642 30.055C16.2325 30.7466 17.7652 30.7466 19.0335 30.055L25.8253 26.3516C27.1909 25.607 28.0407 24.1758 28.0407 22.6203V15.6253C28.0407 14.0698 27.1909 12.6386 25.8253 11.8939L19.0335 8.19054ZM16.9991 14.8728C16.5967 14.8728 16.3276 15.3557 15.7892 16.3214L15.65 16.5712C15.497 16.8456 15.4205 16.9828 15.3012 17.0734C15.182 17.1639 15.0335 17.1975 14.7364 17.2647L14.4659 17.3259C13.4206 17.5624 12.8979 17.6807 12.7735 18.0806C12.6492 18.4805 13.0055 18.8972 13.7182 19.7305L13.9026 19.9461C14.1051 20.1829 14.2063 20.3013 14.2519 20.4478C14.2974 20.5943 14.2821 20.7523 14.2515 21.0683L14.2236 21.3559C14.1159 22.4678 14.062 23.0238 14.3876 23.2709C14.7131 23.518 15.2025 23.2927 16.1813 22.842L16.4345 22.7255C16.7127 22.5974 16.8517 22.5334 16.9991 22.5334C17.1466 22.5334 17.2856 22.5974 17.5638 22.7255L17.817 22.842C18.7958 23.2927 19.2851 23.518 19.6107 23.2709C19.9363 23.0238 19.8824 22.4678 19.7747 21.3559L19.7468 21.0683C19.7162 20.7523 19.7009 20.5943 19.7464 20.4478C19.792 20.3013 19.8932 20.1829 20.0957 19.9461L20.2801 19.7305C20.9928 18.8972 21.3491 18.4805 21.2247 18.0806C21.1004 17.6807 20.5777 17.5624 19.5323 17.3259L19.2619 17.2647C18.9648 17.1975 18.8163 17.1639 18.697 17.0734C18.5778 16.9828 18.5013 16.8456 18.3483 16.5712L18.2091 16.3214C17.6707 15.3557 17.4016 14.8728 16.9991 14.8728Z" fill="#C2B4A3"/>
    <path d="M15.5846 2.83594H18.418C21.0893 2.83594 22.4249 2.83594 23.2548 3.6658C24.0846 4.49567 24.0846 5.83131 24.0846 8.5026V8.52806L20.0529 6.32967C18.1505 5.29235 15.8515 5.29234 13.9491 6.32967L9.91797 8.52775V8.5026C9.91797 5.83131 9.91797 4.49567 10.7478 3.6658C11.5777 2.83594 12.9133 2.83594 15.5846 2.83594Z" fill="#C2B4A3"/>
</svg>

