<svg width="34" height="34" viewBox="0 0 34 34" fill="none" xmlns="http://www.w3.org/2000/svg">
    <path fill-rule="evenodd" clip-rule="evenodd" d="M4.49176 7.32379C2.83203 8.98352 2.83203 11.6548 2.83203 16.9974C2.83203 22.34 2.83203 25.0113 4.49176 26.671C6.15149 28.3307 8.82278 28.3307 14.1654 28.3307H19.832C25.1746 28.3307 27.8459 28.3307 29.5056 26.671C31.1654 25.0113 31.1654 22.34 31.1654 16.9974C31.1654 11.6548 31.1654 8.98352 29.5056 7.32379C27.8459 5.66406 25.1746 5.66406 19.832 5.66406H14.1654C8.82278 5.66406 6.15149 5.66406 4.49176 7.32379ZM26.3149 10.6505C26.6906 11.1013 26.6297 11.7713 26.1789 12.147L23.0672 14.74C21.8115 15.7865 20.7938 16.6346 19.8955 17.2123C18.9598 17.8141 18.0486 18.1943 16.9987 18.1943C15.9488 18.1943 15.0376 17.8141 14.1019 17.2123C13.2036 16.6346 12.1859 15.7865 10.9302 14.74L7.8185 12.147C7.36771 11.7713 7.3068 11.1013 7.68246 10.6505C8.05812 10.1997 8.7281 10.1388 9.17889 10.5145L12.2373 13.0632C13.559 14.1646 14.4766 14.9268 15.2514 15.4251C16.0013 15.9074 16.5098 16.0693 16.9987 16.0693C17.4876 16.0693 17.9961 15.9074 18.746 15.4251C19.5207 14.9268 20.4384 14.1646 21.7601 13.0632L24.8185 10.5145C25.2693 10.1388 25.9393 10.1997 26.3149 10.6505Z" fill="#C2B4A3"/>
</svg>
