<svg width="34" height="34" viewBox="0 0 34 34" fill="none" xmlns="http://www.w3.org/2000/svg">
    <path fill-rule="evenodd" clip-rule="evenodd" d="M17.0013 2.83594C10.7421 2.83594 5.66797 8.50626 5.66797 14.8776C5.66797 21.199 9.28518 28.0702 14.9288 30.7081C16.2444 31.323 17.7582 31.323 19.0738 30.7081C24.7174 28.0702 28.3346 21.199 28.3346 14.8776C28.3346 8.50626 23.2605 2.83594 17.0013 2.83594ZM17.0013 17.0026C18.5661 17.0026 19.8346 15.7341 19.8346 14.1693C19.8346 12.6045 18.5661 11.3359 17.0013 11.3359C15.4365 11.3359 14.168 12.6045 14.168 14.1693C14.168 15.7341 15.4365 17.0026 17.0013 17.0026Z" fill="#C2B4A3"/>
</svg>
