<svg width="34" height="34" viewBox="0 0 34 34" fill="none" xmlns="http://www.w3.org/2000/svg">
    <path d="M14.2212 7.52864L15.1407 9.17612C15.9704 10.6629 15.6373 12.6133 14.3305 13.9201C14.3305 13.9201 12.7453 15.5053 15.6194 18.3793C18.4934 21.2533 20.0786 19.6682 20.0786 19.6682C21.3854 18.3614 23.3358 18.0283 24.8226 18.858L26.4701 19.7775C28.7151 21.0304 28.9802 24.1788 27.0069 26.1522C25.8211 27.3379 24.3685 28.2606 22.7628 28.3214C20.0596 28.4239 15.4689 27.7398 10.8639 23.1348C6.2589 18.5298 5.57477 13.9391 5.67725 11.2359C5.73812 9.63016 6.66077 8.17756 7.84653 6.99181C9.81987 5.01846 12.9683 5.2836 14.2212 7.52864Z" fill="#C2B4A3"/>
</svg>
