<svg width="34" height="34" viewBox="0 0 34 34" fill="none" xmlns="http://www.w3.org/2000/svg">
    <path d="M2.83203 9.21094C2.83203 6.20573 2.83203 4.70313 3.76563 3.76953C4.69923 2.83594 6.20183 2.83594 9.20703 2.83594C12.2122 2.83594 13.7148 2.83594 14.6484 3.76953C15.582 4.70313 15.582 6.20573 15.582 9.21094C15.582 12.2161 15.582 13.7187 14.6484 14.6523C13.7148 15.5859 12.2122 15.5859 9.20703 15.5859C6.20183 15.5859 4.69923 15.5859 3.76563 14.6523C2.83203 13.7187 2.83203 12.2161 2.83203 9.21094Z" fill="#C2B4A3"/>
    <path d="M18.418 24.7891C18.418 21.7839 18.418 20.2813 19.3516 19.3477C20.2852 18.4141 21.7878 18.4141 24.793 18.4141C27.7982 18.4141 29.3008 18.4141 30.2344 19.3477C31.168 20.2813 31.168 21.7839 31.168 24.7891C31.168 27.7943 31.168 29.2969 30.2344 30.2305C29.3008 31.1641 27.7982 31.1641 24.793 31.1641C21.7878 31.1641 20.2852 31.1641 19.3516 30.2305C18.418 29.2969 18.418 27.7943 18.418 24.7891Z" fill="#C2B4A3"/>
    <path d="M2.83203 24.7891C2.83203 21.7839 2.83203 20.2813 3.76563 19.3477C4.69923 18.4141 6.20183 18.4141 9.20703 18.4141C12.2122 18.4141 13.7148 18.4141 14.6484 19.3477C15.582 20.2813 15.582 21.7839 15.582 24.7891C15.582 27.7943 15.582 29.2969 14.6484 30.2305C13.7148 31.1641 12.2122 31.1641 9.20703 31.1641C6.20183 31.1641 4.69923 31.1641 3.76563 30.2305C2.83203 29.2969 2.83203 27.7943 2.83203 24.7891Z" fill="#C2B4A3"/>
    <path d="M18.418 9.21094C18.418 6.20573 18.418 4.70313 19.3516 3.76953C20.2852 2.83594 21.7878 2.83594 24.793 2.83594C27.7982 2.83594 29.3008 2.83594 30.2344 3.76953C31.168 4.70313 31.168 6.20573 31.168 9.21094C31.168 12.2161 31.168 13.7187 30.2344 14.6523C29.3008 15.5859 27.7982 15.5859 24.793 15.5859C21.7878 15.5859 20.2852 15.5859 19.3516 14.6523C18.418 13.7187 18.418 12.2161 18.418 9.21094Z" fill="#C2B4A3"/>
</svg>
