<svg width="30" height="24" viewBox="0 0 30 24" fill="none" xmlns="http://www.w3.org/2000/svg">
    <path d="M11.3333 0H17C22.3426 0 25.0139 0 26.6736 1.65973C27.8686 2.85474 28.2032 4.57416 28.2969 7.4375H0.0364316C0.130116 4.57416 0.464712 2.85474 1.65973 1.65973C3.31946 0 5.99075 0 11.3333 0Z" fill="#C2B4A3"/>
    <path fill-rule="evenodd" clip-rule="evenodd" d="M28.3326 12.4915L27.7539 11.9128C26.5091 10.668 24.4909 10.668 23.2461 11.9128L22.1107 13.0481C21.6577 11.8395 20.4918 10.9792 19.125 10.9792C17.3646 10.9792 15.9375 12.4063 15.9375 14.1667V16.6655C15.2435 16.7426 14.5699 17.0473 14.0378 17.5794C12.793 18.8242 12.793 20.8424 14.0378 22.0872L14.6172 22.6667H11.3333C5.99075 22.6667 3.31946 22.6667 1.65973 21.0069C0 19.3472 0 16.6759 0 11.3333C0 10.7073 0 10.1179 0.00267083 9.5625H28.3307C28.3333 10.1179 28.3333 10.7073 28.3333 11.3333C28.3333 11.7342 28.3333 12.12 28.3326 12.4915ZM5.66667 15.9375C5.07986 15.9375 4.60417 16.4132 4.60417 17C4.60417 17.5868 5.07986 18.0625 5.66667 18.0625H11.3333C11.9201 18.0625 12.3958 17.5868 12.3958 17C12.3958 16.4132 11.9201 15.9375 11.3333 15.9375H5.66667Z" fill="#C2B4A3"/>
    <path fill-rule="evenodd" clip-rule="evenodd" d="M19.125 13.1042C19.7118 13.1042 20.1875 13.5799 20.1875 14.1667V20.1016L21.207 19.082C21.622 18.6671 22.2947 18.6671 22.7096 19.082C23.1246 19.497 23.1246 20.1697 22.7096 20.5846L19.8763 23.418C19.4614 23.8329 18.7886 23.8329 18.3737 23.418L15.5404 20.5846C15.1254 20.1697 15.1254 19.497 15.5404 19.082C15.9553 18.6671 16.628 18.6671 17.043 19.082L18.0625 20.1016V14.1667C18.0625 13.5799 18.5382 13.1042 19.125 13.1042ZM24.7487 13.4154C25.1636 13.0004 25.8364 13.0004 26.2513 13.4154L29.0846 16.2487C29.4996 16.6636 29.4996 17.3364 29.0846 17.7513C28.6697 18.1662 27.997 18.1662 27.582 17.7513L26.5625 16.7318V22.6667C26.5625 23.2535 26.0868 23.7292 25.5 23.7292C24.9132 23.7292 24.4375 23.2535 24.4375 22.6667V16.7318L23.418 17.7513C23.003 18.1662 22.3303 18.1662 21.9154 17.7513C21.5004 17.3364 21.5004 16.6636 21.9154 16.2487L24.7487 13.4154Z" fill="#C2B4A3"/>
</svg>
