<svg width="29" height="22" viewBox="0 0 29 22" fill="none" xmlns="http://www.w3.org/2000/svg">
    <path d="M26.8336 4.51747C27.6555 5.32959 28.009 6.35213 28.1742 7.56657C28.3334 8.7363 28.3334 10.2236 28.3333 12.0687V12.2168C28.3334 14.062 28.3334 15.5493 28.1742 16.719C28.009 17.9334 27.6555 18.956 26.8336 19.7681C26.0117 20.5802 24.9769 20.9295 23.7479 21.0928C22.5641 21.25 21.0589 21.25 19.1915 21.25H12.2145C10.3471 21.25 8.842 21.25 7.65821 21.0928C6.42917 20.9295 5.39434 20.5802 4.57246 19.7681C4.07384 19.2754 3.74758 18.7053 3.53119 18.0618C4.76576 18.2146 6.29311 18.2145 8.05781 18.2144H15.1546C16.9703 18.2145 18.5347 18.2146 19.7875 18.0482C21.1301 17.8698 22.4171 17.4676 23.4609 16.4361C24.5048 15.4047 24.9119 14.133 25.0924 12.8064C25.2608 11.5685 25.2607 10.0226 25.2606 8.22856V7.96209C25.2607 6.21792 25.2608 4.70838 25.106 3.48832C25.7575 3.70214 26.3348 4.02458 26.8336 4.51747Z" fill="#C2B4A3"/>
    <path d="M11.6062 5.73417C10.2865 5.73417 9.21671 6.79129 9.21671 8.09531C9.21671 9.39932 10.2865 10.4564 11.6062 10.4564C12.9259 10.4564 13.9957 9.39932 13.9957 8.09531C13.9957 6.79129 12.9259 5.73417 11.6062 5.73417Z" fill="#C2B4A3"/>
    <path fill-rule="evenodd" clip-rule="evenodd" d="M1.19978 1.18553C0 2.37106 0 4.27914 0 8.09531C0 11.9115 0 13.8196 1.19978 15.0051C2.39956 16.1906 4.33059 16.1906 8.19263 16.1906H15.0198C18.8819 16.1906 20.8129 16.1906 22.0127 15.0051C23.2124 13.8196 23.2124 11.9115 23.2124 8.09531C23.2124 4.27914 23.2124 2.37106 22.0127 1.18553C20.8129 0 18.8819 0 15.0198 0H8.19263C4.33059 0 2.39956 0 1.19978 1.18553ZM7.16855 8.09531C7.16855 5.67356 9.15536 3.71035 11.6062 3.71035C14.0571 3.71035 16.0439 5.67356 16.0439 8.09531C16.0439 10.5171 14.0571 12.4803 11.6062 12.4803C9.15536 12.4803 7.16855 10.5171 7.16855 8.09531ZM19.1161 11.8057C18.5505 11.8057 18.0921 11.3526 18.0921 10.7937V5.39687C18.0921 4.83801 18.5505 4.38496 19.1161 4.38496C19.6817 4.38496 20.1402 4.83801 20.1402 5.39687V10.7937C20.1402 11.3526 19.6817 11.8057 19.1161 11.8057ZM3.07224 10.7937C3.07224 11.3526 3.53073 11.8057 4.09631 11.8057C4.6619 11.8057 5.12039 11.3526 5.12039 10.7937L5.12039 5.39687C5.12039 4.83801 4.6619 4.38496 4.09631 4.38496C3.53073 4.38496 3.07224 4.83801 3.07224 5.39687L3.07224 10.7937Z" fill="#C2B4A3"/>
</svg>
