<svg width="20" height="19" viewBox="0 0 20 19" fill="none" xmlns="http://www.w3.org/2000/svg">
    <path d="M7.927 0.98977C8.69969 -0.328195 10.605 -0.328193 11.3777 0.989773L13.1035 3.93352C13.3855 4.41449 13.8555 4.75592 14.4 4.87547L17.733 5.60718C19.2252 5.93477 19.814 7.74683 18.7993 8.88898L16.533 11.44C16.1627 11.8568 15.9832 12.4093 16.0378 12.9641L16.3718 16.3601C16.5214 17.8805 14.9799 19.0004 13.5801 18.3884L10.4536 17.0212C9.94278 16.7979 9.3619 16.7979 8.85107 17.0212L5.72454 18.3884C4.32474 19.0004 2.78332 17.8805 2.93288 16.3601L3.26693 12.9641C3.32151 12.4093 3.14201 11.8568 2.77172 11.44L0.505365 8.88898C-0.50932 7.74683 0.0794551 5.93477 1.57169 5.60718L4.90467 4.87547C5.44923 4.75592 5.91918 4.41448 6.20116 3.93352L7.927 0.98977Z" fill="#FFCE22"/>
</svg>
