<svg width="152" height="28" viewBox="0 0 152 28" fill="none" xmlns="http://www.w3.org/2000/svg">
    <path d="M128.23 21.6884V7.19844H132.16V21.6884H128.23ZM137.68 21.6884V13.1384C137.68 12.2984 137.41 11.6484 136.87 11.1884C136.35 10.7084 135.7 10.4684 134.92 10.4684C134.4 10.4684 133.93 10.5784 133.51 10.7984C133.09 10.9984 132.76 11.2984 132.52 11.6984C132.28 12.0984 132.16 12.5784 132.16 13.1384L130.63 12.3884C130.63 11.2684 130.87 10.2984 131.35 9.47844C131.85 8.65844 132.52 8.02844 133.36 7.58844C134.2 7.12844 135.15 6.89844 136.21 6.89844C137.21 6.89844 138.12 7.12844 138.94 7.58844C139.76 8.02844 140.41 8.65844 140.89 9.47844C141.37 10.2784 141.61 11.2484 141.61 12.3884V21.6884H137.68ZM147.13 21.6884V13.1384C147.13 12.2984 146.86 11.6484 146.32 11.1884C145.8 10.7084 145.15 10.4684 144.37 10.4684C143.87 10.4684 143.4 10.5784 142.96 10.7984C142.54 10.9984 142.21 11.2984 141.97 11.6984C141.73 12.0984 141.61 12.5784 141.61 13.1384L139.36 12.5984C139.44 11.4384 139.75 10.4384 140.29 9.59844C140.83 8.73844 141.54 8.07844 142.42 7.61844C143.3 7.13844 144.28 6.89844 145.36 6.89844C146.44 6.89844 147.41 7.12844 148.27 7.58844C149.13 8.02844 149.81 8.66844 150.31 9.50844C150.81 10.3484 151.06 11.3484 151.06 12.5084V21.6884H147.13Z" fill="white"/>
    <path d="M117.958 21.9872C116.498 21.9872 115.178 21.6572 113.998 20.9972C112.838 20.3172 111.908 19.4072 111.208 18.2672C110.528 17.1072 110.188 15.8172 110.188 14.3972C110.188 12.9772 110.528 11.7072 111.208 10.5872C111.888 9.44719 112.818 8.54719 113.998 7.88719C115.178 7.20719 116.487 6.86719 117.927 6.86719C119.407 6.86719 120.728 7.20719 121.888 7.88719C123.068 8.54719 123.997 9.44719 124.677 10.5872C125.357 11.7072 125.698 12.9772 125.698 14.3972C125.698 15.8172 125.357 17.1072 124.677 18.2672C123.997 19.4072 123.068 20.3172 121.888 20.9972C120.728 21.6572 119.418 21.9872 117.958 21.9872ZM117.927 18.3272C118.667 18.3272 119.318 18.1672 119.878 17.8472C120.458 17.5072 120.898 17.0472 121.198 16.4672C121.518 15.8672 121.677 15.1872 121.677 14.4272C121.677 13.6672 121.518 12.9972 121.198 12.4172C120.878 11.8372 120.438 11.3872 119.878 11.0672C119.318 10.7272 118.667 10.5572 117.927 10.5572C117.207 10.5572 116.567 10.7272 116.007 11.0672C115.447 11.3872 115.007 11.8372 114.688 12.4172C114.367 12.9972 114.208 13.6672 114.208 14.4272C114.208 15.1872 114.367 15.8672 114.688 16.4672C115.007 17.0472 115.447 17.5072 116.007 17.8472C116.567 18.1672 117.207 18.3272 117.927 18.3272Z" fill="white"/>
    <path d="M100.879 21.9872C99.4194 21.9872 98.0994 21.6572 96.9194 20.9972C95.7594 20.3172 94.8294 19.4072 94.1294 18.2672C93.4494 17.1072 93.1094 15.8172 93.1094 14.3972C93.1094 12.9772 93.4494 11.7072 94.1294 10.5872C94.8094 9.44719 95.7394 8.54719 96.9194 7.88719C98.0994 7.20719 99.4094 6.86719 100.849 6.86719C102.329 6.86719 103.649 7.20719 104.809 7.88719C105.989 8.54719 106.919 9.44719 107.599 10.5872C108.279 11.7072 108.619 12.9772 108.619 14.3972C108.619 15.8172 108.279 17.1072 107.599 18.2672C106.919 19.4072 105.989 20.3172 104.809 20.9972C103.649 21.6572 102.339 21.9872 100.879 21.9872ZM100.849 18.3272C101.589 18.3272 102.239 18.1672 102.799 17.8472C103.379 17.5072 103.819 17.0472 104.119 16.4672C104.439 15.8672 104.599 15.1872 104.599 14.4272C104.599 13.6672 104.439 12.9972 104.119 12.4172C103.799 11.8372 103.359 11.3872 102.799 11.0672C102.239 10.7272 101.589 10.5572 100.849 10.5572C100.129 10.5572 99.4894 10.7272 98.9294 11.0672C98.3694 11.3872 97.9294 11.8372 97.6094 12.4172C97.2894 12.9972 97.1294 13.6672 97.1294 14.4272C97.1294 15.1872 97.2894 15.8672 97.6094 16.4672C97.9294 17.0472 98.3694 17.5072 98.9294 17.8472C99.4894 18.1672 100.129 18.3272 100.849 18.3272Z" fill="white"/>
    <path d="M78.1992 21.6916V0.601562H82.2792V21.6916H78.1992ZM81.1992 21.6916V18.0616H91.9392V21.6916H81.1992Z" fill="white"/>
    <path d="M71.6319 21.9878C70.9119 21.9878 70.3219 21.7478 69.8619 21.2678C69.4019 20.7878 69.1719 20.1978 69.1719 19.4978C69.1719 18.7978 69.4019 18.2078 69.8619 17.7278C70.3219 17.2478 70.9119 17.0078 71.6319 17.0078C72.3319 17.0078 72.9119 17.2478 73.3719 17.7278C73.8319 18.2078 74.0619 18.7978 74.0619 19.4978C74.0619 20.1978 73.8319 20.7878 73.3719 21.2678C72.9119 21.7478 72.3319 21.9878 71.6319 21.9878Z" fill="#B8A893"/>
    <path d="M59.6322 21.9872C58.1122 21.9872 56.7622 21.6672 55.5822 21.0272C54.4022 20.3672 53.4622 19.4672 52.7622 18.3272C52.0822 17.1872 51.7422 15.8872 51.7422 14.4272C51.7422 12.9872 52.0722 11.7072 52.7322 10.5872C53.4122 9.44719 54.3322 8.54719 55.4922 7.88719C56.6522 7.20719 57.9422 6.86719 59.3622 6.86719C60.7622 6.86719 61.9922 7.18719 63.0522 7.82719C64.1322 8.44719 64.9722 9.30719 65.5722 10.4072C66.1922 11.4872 66.5022 12.7172 66.5022 14.0972C66.5022 14.3572 66.4822 14.6272 66.4422 14.9072C66.4222 15.1672 66.3722 15.4672 66.2922 15.8072L54.1122 15.8372V12.8972L64.4622 12.8672L62.8722 14.0972C62.8322 13.2372 62.6722 12.5172 62.3922 11.9372C62.1322 11.3572 61.7422 10.9172 61.2222 10.6172C60.7222 10.2972 60.1022 10.1372 59.3622 10.1372C58.5822 10.1372 57.9022 10.3172 57.3222 10.6772C56.7422 11.0172 56.2922 11.5072 55.9722 12.1472C55.6722 12.7672 55.5222 13.5072 55.5222 14.3672C55.5222 15.2472 55.6822 16.0172 56.0022 16.6772C56.3422 17.3172 56.8222 17.8172 57.4422 18.1772C58.0622 18.5172 58.7822 18.6872 59.6022 18.6872C60.3422 18.6872 61.0122 18.5672 61.6122 18.3272C62.2122 18.0672 62.7322 17.6872 63.1722 17.1872L65.4822 19.4972C64.7822 20.3172 63.9222 20.9372 62.9022 21.3572C61.9022 21.7772 60.8122 21.9872 59.6322 21.9872Z" fill="white"/>
    <path d="M45.2891 21.69V0H49.2191V21.69H45.2891Z" fill="white"/>
    <path d="M34.4116 21.8131L28.3516 7.20312H32.6116L36.6316 18.3631H35.1916L39.3616 7.20312H43.6516L37.2016 21.7831L34.4116 21.8131ZM30.3916 27.7531L34.8016 18.4231L37.2016 21.7831L34.5616 27.7531H30.3916Z" fill="white"/>
    <path d="M20.3197 21.6919V1.17188H24.2497V21.6919H20.3197ZM16.9297 10.6519V7.20187H27.6397V10.6519H16.9297Z" fill="white"/>
    <path d="M7.65 21.9934C5.95 21.9934 4.49 21.7034 3.27 21.1234C2.07 20.5434 0.98 19.6734 0 18.5134L2.7 15.8134C3.32 16.6334 4.04 17.2734 4.86 17.7334C5.68 18.1734 6.68 18.3934 7.86 18.3934C8.92 18.3934 9.76 18.1834 10.38 17.7634C11.02 17.3434 11.34 16.7634 11.34 16.0234C11.34 15.3834 11.16 14.8634 10.8 14.4634C10.44 14.0634 9.96 13.7234 9.36 13.4434C8.78 13.1634 8.13 12.9134 7.41 12.6934C6.71 12.4534 6 12.1834 5.28 11.8834C4.58 11.5834 3.93 11.2134 3.33 10.7734C2.75 10.3134 2.28 9.73344 1.92 9.03344C1.56 8.31344 1.38 7.41344 1.38 6.33344C1.38 5.05344 1.69 3.96344 2.31 3.06344C2.93 2.16344 3.78 1.47344 4.86 0.993437C5.94 0.513437 7.16 0.273438 8.52 0.273438C9.96 0.273438 11.26 0.543438 12.42 1.08344C13.58 1.62344 14.53 2.32344 15.27 3.18344L12.57 5.88344C11.95 5.20344 11.31 4.70344 10.65 4.38344C10.01 4.06344 9.28 3.90344 8.46 3.90344C7.52 3.90344 6.78 4.08344 6.24 4.44344C5.7 4.80344 5.43 5.32344 5.43 6.00344C5.43 6.58344 5.61 7.05344 5.97 7.41344C6.33 7.77344 6.8 8.08344 7.38 8.34344C7.98 8.60344 8.63 8.85344 9.33 9.09344C10.05 9.33344 10.76 9.60344 11.46 9.90344C12.18 10.2034 12.83 10.5934 13.41 11.0734C14.01 11.5534 14.49 12.1734 14.85 12.9334C15.21 13.6734 15.39 14.5934 15.39 15.6934C15.39 17.6534 14.7 19.1934 13.32 20.3134C11.94 21.4334 10.05 21.9934 7.65 21.9934Z" fill="white"/>
</svg>
